<?xml version="1.0" encoding="UTF-8" standalone="no"?>
<svg
   id="Layer_1"
   data-name="Layer 1"
   viewBox="0 0 122.88 122.88"
   version="1.1"
   sodipodi:docname="email-square-icon.svg"
   inkscape:version="1.3 (0e150ed6c4, 2023-07-21)"
   xmlns:inkscape="http://www.inkscape.org/namespaces/inkscape"
   xmlns:sodipodi="http://sodipodi.sourceforge.net/DTD/sodipodi-0.dtd"
   xmlns="http://www.w3.org/2000/svg"
   xmlns:svg="http://www.w3.org/2000/svg">
  <sodipodi:namedview
     id="namedview1"
     pagecolor="#505050"
     bordercolor="#eeeeee"
     borderopacity="1"
     inkscape:showpageshadow="0"
     inkscape:pageopacity="0"
     inkscape:pagecheckerboard="0"
     inkscape:deskcolor="#505050"
     inkscape:zoom="9.5458987"
     inkscape:cx="61.439999"
     inkscape:cy="61.439999"
     inkscape:window-width="2560"
     inkscape:window-height="1369"
     inkscape:window-x="1912"
     inkscape:window-y="-8"
     inkscape:window-maximized="1"
     inkscape:current-layer="Layer_1" />
  <defs
     id="defs1">
    <style
       id="style1">.cls-1{fill-rule:evenodd;fill:white;}</style>
  </defs>
  <title
     id="title1">email-square-color</title>
  <rect
     style="stroke:#000000;stroke-width:0;paint-order:markers stroke fill;fill:black"
     id="rect1"
     width="79.82486"
     height="58.559181"
     x="22.418005"
     y="33.836521" />
  <path
     class="cls-1"
     d="M25.2,0H97.68a25.27,25.27,0,0,1,25.2,25.2V97.68a25.27,25.27,0,0,1-25.2,25.2H25.2A25.27,25.27,0,0,1,0,97.68V25.2A25.27,25.27,0,0,1,25.2,0Zm4.1,37.59L62,64.26,93.33,37.59ZM27.19,82.48l23.3-23.37-23.3-19V82.48ZM53.06,61.21,29,85.29H93.65l-23-24.08-7.57,6.45h0a1.66,1.66,0,0,1-2.12,0l-7.94-6.48ZM73.2,59.07,95.69,82.66V39.9L73.2,59.07Z"
     id="path1" />
</svg>
